<svg class="main-svg" xmlns="http://www.w3.org/2000/svg" xmlns:xlink="http://www.w3.org/1999/xlink" width="1350.75" height="500" style="" viewBox="0 0 1350.75 500"><rect x="0" y="0" width="1350.75" height="500" style="fill: rgb(255, 255, 255); fill-opacity: 1;"/><defs id="defs-a2da9b"><g class="clips"><clipPath id="clipa2da9bxyplot" class="plotclip"><rect width="1289" height="348"/></clipPath><clipPath id="clipa2da9bxy3plot" class="plotclip"><rect width="1289" height="17.400000000000016"/></clipPath><clipPath id="clipa2da9bxy4plot" class="plotclip"><rect width="1289" height="52.19999999999995"/></clipPath><clipPath class="axesclip" id="clipa2da9bx"><rect x="60" y="0" width="1289" height="500"/></clipPath><clipPath class="axesclip" id="clipa2da9by"><rect x="0" y="16" width="1350.75" height="348"/></clipPath><clipPath class="axesclip" id="clipa2da9bxy"><rect x="60" y="16" width="1289" height="348"/></clipPath><clipPath class="axesclip" id="clipa2da9by3"><rect x="0" y="381.40000000000003" width="1350.75" height="17.400000000000016"/></clipPath><clipPath class="axesclip" id="clipa2da9bxy3"><rect x="60" y="381.40000000000003" width="1289" height="17.400000000000016"/></clipPath><clipPath class="axesclip" id="clipa2da9by4"><rect x="0" y="398.80000000000007" width="1350.75" height="52.19999999999995"/></clipPath><clipPath class="axesclip" id="clipa2da9bxy4"><rect x="60" y="398.80000000000007" width="1289" height="52.19999999999995"/></clipPath></g><g class="gradients"/><g class="patterns"/></defs><g class="bglayer"/><g class="layer-below"><g class="imagelayer"/><g class="shapelayer"/></g><g class="cartesianlayer"><g class="subplot xy"><g class="layer-subplot"><g class="shapelayer"/><g class="imagelayer"/></g><g class="gridlayer"><g class="x"><path class="xgrid crisp" transform="translate(240.9,0)" d="M0,16v348" style="stroke: rgb(235, 235, 235); stroke-opacity: 1; stroke-width: 0.664176px;"/><path class="xgrid crisp" transform="translate(422.7,0)" d="M0,16v348" style="stroke: rgb(235, 235, 235); stroke-opacity: 1; stroke-width: 0.664176px;"/><path class="xgrid crisp" transform="translate(604.51,0)" d="M0,16v348" style="stroke: rgb(235, 235, 235); stroke-opacity: 1; stroke-width: 0.664176px;"/><path class="xgrid crisp" transform="translate(786.31,0)" d="M0,16v348" style="stroke: rgb(235, 235, 235); stroke-opacity: 1; stroke-width: 0.664176px;"/><path class="xgrid crisp" transform="translate(968.12,0)" d="M0,16v348" style="stroke: rgb(235, 235, 235); stroke-opacity: 1; stroke-width: 0.664176px;"/><path class="xgrid crisp" transform="translate(1149.92,0)" d="M0,16v348" style="stroke: rgb(235, 235, 235); stroke-opacity: 1; stroke-width: 0.664176px;"/><path class="xgrid crisp" transform="translate(1331.73,0)" d="M0,16v348" style="stroke: rgb(235, 235, 235); stroke-opacity: 1; stroke-width: 0.664176px;"/></g><g class="y"><path class="ygrid crisp" transform="translate(0,348.18)" d="M60,0h1289" style="stroke: rgb(255, 255, 255); stroke-opacity: 1; stroke-width: 0.664176px;"/><path class="ygrid crisp" transform="translate(0,158.57)" d="M60,0h1289" style="stroke: rgb(255, 255, 255); stroke-opacity: 1; stroke-width: 0.664176px;"/></g></g><g class="zerolinelayer"/><path class="xlines-below"/><path class="ylines-below"/><g class="overlines-below"/><g class="xaxislayer-below"/><g class="yaxislayer-below"/><g class="overaxes-below"/><g class="plot" transform="translate(60,16)" clip-path="url(#clipa2da9bxyplot)"><g class="scatterlayer mlayer"><g class="trace scatter trace75fc17" style="stroke-miterlimit: 2; opacity: 1;"><g class="fills"/><g class="errorbars"/><g class="lines"><path class="js-line" d="M1215.37,348L1215.37,0" style="vector-effect: non-scaling-stroke; fill: none; stroke: rgb(0, 0, 0); stroke-opacity: 1; stroke-width: 0.755906px; opacity: 1; stroke-dasharray: 9px, 3px, 3px, 3px;"/><path class="js-line" d="M256.35,348L256.35,0" style="vector-effect: non-scaling-stroke; fill: none; stroke: rgb(0, 0, 0); stroke-opacity: 1; stroke-width: 0.755906px; opacity: 1; stroke-dasharray: 9px, 3px, 3px, 3px;"/></g><g class="points"/><g class="text"/></g><g class="trace scatter trace6dc3a2" style="stroke-miterlimit: 2; opacity: 1;"><g class="fills"/><g class="errorbars"/><g class="lines"><path class="js-line" d="M-0.3,332.18L1289.3,332.18" style="vector-effect: non-scaling-stroke; fill: none; stroke: rgb(0, 0, 0); stroke-opacity: 1; stroke-width: 1.88976px; opacity: 1;"/></g><g class="points"/><g class="text"/></g><g class="trace scatter trace6c19e9" style="stroke-miterlimit: 2; opacity: 1;"><g class="fills"><g><path class="js-fill" d="M-0.3,332.18L1287.48,332.18L1239,331.43L1238.7,331.38L1229.61,329.62L1229.31,329.24L1225.97,326.19L1225.67,326.11L1224.46,325.75L1224.16,324.65L1221.13,315.73L1220.82,315.68L1209.01,312.6L1208.7,312.47L1206.88,312.3L1206.58,312.32L1204.76,313.07L1204.46,313.39L1201.73,315.32L1201.43,315.32L1199.92,315.31L1199.61,316.22L1196.58,323.47L1196.28,323.44L1192.64,323.82L1192.34,323.91L1190.22,323.9L1189.92,323.86L1183.25,322.7L1182.95,322.47L1178.7,320.09L1178.4,319.99L1174.46,319.43L1174.16,319.48L1169.01,319.63L1168.71,319.57L1162.34,319.17L1162.04,319.23L1159.62,320.44L1159.31,320.61L1155.37,322.22L1155.07,322.14L1145.98,320.18L1145.68,320.17L1136.59,319.6L1136.28,319.51L1132.04,318.94L1131.74,318.94L1126.59,320.49L1126.28,320.63L1118.1,319.93L1117.8,320.04L1111.74,321.31L1111.44,321.36L1105.07,321.75L1104.77,321.7L1101.44,321.65L1101.13,321.91L1097.5,324.28L1097.2,324.38L1095.07,324.36L1094.77,324.28L1088.71,323.42L1088.41,323.46L1085.38,323.16L1085.07,323.13L1079.92,323.19L1079.62,323.16L1075.98,322.17L1075.68,321.98L1072.95,320.99L1072.65,320.95L1069.92,319.91L1069.62,319.76L1062.05,315.84L1061.74,315.83L1056.59,315.6L1056.29,315.72L1053.87,315.97L1053.56,315.95L1051.14,316.49L1050.83,316.61L1049.02,316.77L1048.71,316.7L1046.59,316.82L1046.29,317.05L1042.05,319.42L1041.74,319.54L1036.29,322.49L1035.99,322.54L1025.08,323.6L1024.78,323.47L1019.32,322.02L1019.02,322.07L1015.99,321.78L1015.69,321.65L1012.66,321.02L1012.35,321.01L1009.02,321.5L1008.72,321.52L1000.54,322.85L1000.23,323.12L996.6,325.62L996.29,325.73L991.14,327L990.84,327.03L989.93,327.12L989.63,325.8L986.29,313.87L985.99,313.41L983.57,310.73L983.26,310.61L973.26,307.21L972.96,307.19L966.6,307.29L966.3,307.4L965.39,307.73L965.08,309.05L961.75,320.99L961.45,321.46L958.72,324.38L958.42,324.53L951.75,326.8L951.45,326.79L937.81,326.06L937.51,326.01L929.93,325.62L929.63,325.7L923.27,326.62L922.97,326.6L916.3,326.62L916,326.7L906.91,328.7L906.6,328.68L899.63,328.69L899.33,328.73L893.57,328.62L893.27,328.62L890.24,327.96L889.94,327.82L886.91,327.28L886.6,327.25L880.54,326.19L880.24,326.06L876.6,325.31L876.3,325.32L868.42,325.43L868.12,325.38L859.94,324.75L859.64,324.75L853.58,324.42L853.27,323.95L849.64,319.68L849.33,319.54L846.91,319.02L846.61,319.04L839.33,318.55L839.03,318.52L830.55,317.39L830.24,317.2L828.73,316.85L828.43,317.23L825.4,319.97L825.09,320.01L818.73,321.58L818.43,321.7L816,321.84L815.7,321.85L811.76,322.56L811.46,322.68L809.34,322.86L809.03,322.66L806.61,321.67L806.31,321.79L803.58,322.15L803.28,322.03L795.4,320L795.1,320L792.37,319.31L792.07,319.14L784.79,315L784.49,315.09L781.76,315.26L781.46,315.15L777.22,314.19L776.91,314.3L773.28,314.85L772.98,314.77L769.34,314.67L769.04,314.69L759.34,320.17L759.04,320.3L756.31,322.21L756.01,322.46L753.58,323.52L753.28,323.61L751.46,323.5L751.16,323.42L741.77,321.65L741.46,321.68L728.74,323.25L728.43,323.37L723.28,326.03L722.98,326.25L720.25,327.49L719.95,327.62L714.5,328.08L714.19,327.95L709.95,326.95L709.65,326.95L705.1,326.66L704.8,326.51L702.37,326.02L702.07,326.05L689.35,327.71L689.04,327.84L685.71,328.47L685.41,328.44L680.56,328.54L680.26,328.69L678.13,329.05L677.83,328.96L670.56,327.54L670.26,327.59L666.01,327.55L665.71,327.49L658.14,326.96L657.83,327.01L651.77,327.11L651.47,327.05L642.68,326.04L642.38,326.09L638.44,326.04L638.14,326L632.99,325.97L632.68,325.93L629.65,324.49L629.35,323.68L626.62,317.96L626.32,317.93L623.29,318.23L622.99,318.35L620.26,318.81L619.96,318.8L611.78,319.18L611.47,319.26L605.71,320.03L605.41,320.05L602.08,327.44L601.78,327.48L594.5,327.68L594.2,327.41L588.14,323.03L587.84,322.88L584.81,320.69L584.5,320.4L581.17,318.2L580.87,318.03L575.11,317.95L574.81,317.87L572.38,316.78L572.08,316.27L569.35,312.9L569.05,312.99L566.02,313.14L565.72,313.06L561.17,312.26L560.87,312.53L557.54,314.76L557.23,314.87L555.11,314.97L554.81,314.91L551.17,314.77L550.87,314.78L547.54,315.19L547.23,315.42L543.3,317.54L542.99,317.64L540.87,317.73L540.57,317.72L533.6,317.64L533.3,317.51L530.27,316.91L529.96,316.92L525.42,316.49L525.11,316.48L522.08,317.08L521.78,317.21L519.96,317.15L519.66,317L517.54,316.63L517.24,316.82L514.51,317.72L514.21,317.66L512.39,316.85L512.09,316.36L509.06,312.88L508.75,312.86L504.81,313.28L504.51,313.34L494.81,316.57L494.51,316.73L492.39,316.97L492.09,316.91L489.97,317.09L489.66,317.22L487.54,318.88L487.24,319.37L484.21,322.9L483.91,323.04L482.09,323.14L481.78,322.9L470.88,314.51L470.57,314.38L468.15,314.12L467.85,314.25L460.88,316.5L460.57,316.26L457.54,314.74L457.24,314.92L453.3,317.99L453,318.27L447.24,322.86L446.94,322.88L444.21,322.61L443.91,322.17L440.88,318.87L440.57,318.79L436.03,318.19L435.73,318.49L432.39,320.88L432.09,320.96L429.06,321.04L428.76,321L427.55,320.19L427.24,319.82L424.52,317.51L424.21,317.48L419.97,317.39L419.67,317.78L416.33,321.1L416.03,321.17L413,321.12L412.7,321.05L405.73,319.93L405.43,319.94L403,320.7L402.7,321.04L400.27,323.06L399.97,323.02L396.34,323.25L396.03,323.32L394.21,323.11L393.91,323.02L389.67,322.21L389.37,322.33L385.12,323.28L384.82,323.29L375.13,324.32L374.82,324.4L367.85,325.6L367.55,325.64L364.52,325.35L364.22,325.17L361.49,322.76L361.19,322.38L359.07,320.72L358.76,320.67L350.58,320.03L350.28,320.02L342.4,319.48L342.1,319.31L340.89,318.66L340.58,317.57L338.16,308.87L337.85,309.27L337.55,309.67L334.82,312.41L334.52,312.38L331.49,311.46L331.19,311.28L328.76,310.53L328.46,310.52L325.73,309.71L325.43,309.56L323.92,308.15L323.61,307.68L320.58,304.24L320.28,304.09L318.46,303.79L318.16,303.94L316.34,304.84L316.04,306.08L313.01,316.23L312.71,316.31L308.77,316.61L308.46,316.59L306.95,317.15L306.65,317.29L304.22,317.66L303.92,317.61L301.49,317.83L301.19,317.94L299.37,319.32L299.07,319.8L296.04,323.45L295.74,323.64L293.92,324.19L293.62,324.08L287.86,321.3L287.56,321.06L284.53,317.85L284.22,317.47L280.59,313.15L280.28,312.03L274.22,290.24L273.92,289.77L271.8,287.63L271.5,287.55L269.37,286.35L269.07,285.96L266.34,283.59L266.04,283.58L263.01,284.04L262.71,284.15L261.19,285.21L260.89,285.58L258.16,287.84L257.86,287.85L256.35,287.91L256.04,288.97L249.98,310.48L249.68,310.84L247.26,312.69L246.95,312.69L245.13,313.2L244.83,313.71L241.8,317.41L241.5,317.46L236.04,317.83L235.74,317.73L233.92,317.7L233.62,317.89L230.89,318.78L230.59,318.7L226.04,316.98L225.74,316.59L223.01,313.9L222.71,313.91L220.29,313.28L219.98,312.92L216.65,308.01L216.35,307.45L213.62,303.99L213.32,303.7L211.5,300.97L211.2,300.43L208.17,296.53L207.86,296.24L206.65,296.07L206.35,296.28L202.41,298.18L202.11,298.27L201.2,299.17L200.89,299.58L198.17,302.35L197.86,302.45L195.44,304.06L195.14,304.41L191.8,307.24L191.5,307.41L189.38,309.44L189.08,309.77L187.26,312.61L186.96,313.22L183.93,317.84L183.62,318.16L182.71,319.1L182.41,318.53L182.11,317.96L179.08,313.76L178.78,313.69L176.05,313.85L175.75,313.98L172.11,314.64L171.81,314.66L168.78,315.57L168.47,316.02L165.44,319.32L165.14,319.36L161.5,320.66L161.2,320.81L159.69,320.93L159.38,320.92L157.87,321.36L157.56,321.83L154.84,325.13L154.53,325.12L151.81,324.46L151.5,324.26L149.08,323.3L148.78,323.33L142.11,323.04L141.81,322.98L134.84,323.32L134.54,323.45L123.93,327.6L123.63,327.56L118.17,327.72L117.87,327.81L113.63,328.19L113.33,328.23L109.39,327.91L109.08,327.84L105.45,326.04L105.14,326.08L101.81,325.94L101.51,325.87L98.78,326.03L98.48,326.07L97.87,325.59L97.57,325.08L95.14,320.01L94.84,318.56L89.08,291.21L88.78,290.81L86.66,288.99L86.36,289.07L83.33,290.49L83.02,290.73L80.6,291.67L80.3,291.67L73.63,291.69L73.33,292.27L70.6,298.44L70.3,299.92L64.54,327.64L64.24,328.02L61.81,329.98L61.51,330L53.03,331.24L52.72,331.37L50.6,331.58L50.3,331.54L43.94,330.16L43.63,330.03L40.3,327.43L40,326.88L38.18,323.59L37.88,320.24L35.45,293.46L35.15,272.19L32.12,99.47L31.82,98.2L29.39,90.47L29.09,90.4L23.63,88.58L23.33,88.37L21.21,87.53L20.91,87.64L16.36,89.82L16.06,90.39L13.64,94.93L13.33,98.28L10.91,125.06L10.61,146.33L7.58,319.07L7.27,320.34L4.85,328.12L4.55,328.21L0,329.89L-0.3,332.18Z" style="fill: rgb(248, 118, 109); fill-opacity: 0.8; stroke-width: 0;"/></g></g><g class="errorbars"/><g class="lines"><path class="js-line" d="M-0.3,332.18L1287.48,332.18L1239,331.43L1238.7,331.38L1229.61,329.62L1229.31,329.24L1225.97,326.19L1225.67,326.11L1224.46,325.75L1224.16,324.65L1221.13,315.73L1220.82,315.68L1209.01,312.6L1208.7,312.47L1206.88,312.3L1206.58,312.32L1204.76,313.07L1204.46,313.39L1201.73,315.32L1201.43,315.32L1199.92,315.31L1199.61,316.22L1196.58,323.47L1196.28,323.44L1192.64,323.82L1192.34,323.91L1190.22,323.9L1189.92,323.86L1183.25,322.7L1182.95,322.47L1178.7,320.09L1178.4,319.99L1174.46,319.43L1174.16,319.48L1169.01,319.63L1168.71,319.57L1162.34,319.17L1162.04,319.23L1159.62,320.44L1159.31,320.61L1155.37,322.22L1155.07,322.14L1145.98,320.18L1145.68,320.17L1136.59,319.6L1136.28,319.51L1132.04,318.94L1131.74,318.94L1126.59,320.49L1126.28,320.63L1118.1,319.93L1117.8,320.04L1111.74,321.31L1111.44,321.36L1105.07,321.75L1104.77,321.7L1101.44,321.65L1101.13,321.91L1097.5,324.28L1097.2,324.38L1095.07,324.36L1094.77,324.28L1088.71,323.42L1088.41,323.46L1085.38,323.16L1085.07,323.13L1079.92,323.19L1079.62,323.16L1075.98,322.17L1075.68,321.98L1072.95,320.99L1072.65,320.95L1069.92,319.91L1069.62,319.76L1062.05,315.84L1061.74,315.83L1056.59,315.6L1056.29,315.72L1053.87,315.97L1053.56,315.95L1051.14,316.49L1050.83,316.61L1049.02,316.77L1048.71,316.7L1046.59,316.82L1046.29,317.05L1042.05,319.42L1041.74,319.54L1036.29,322.49L1035.99,322.54L1025.08,323.6L1024.78,323.47L1019.32,322.02L1019.02,322.07L1015.99,321.78L1015.69,321.65L1012.66,321.02L1012.35,321.01L1009.02,321.5L1008.72,321.52L1000.54,322.85L1000.23,323.12L996.6,325.62L996.29,325.73L991.14,327L990.84,327.03L989.93,327.12L989.63,325.8L986.29,313.87L985.99,313.41L983.57,310.73L983.26,310.61L973.26,307.21L972.96,307.19L966.6,307.29L966.3,307.4L965.39,307.73L965.08,309.05L961.75,320.99L961.45,321.46L958.72,324.38L958.42,324.53L951.75,326.8L951.45,326.79L937.81,326.06L937.51,326.01L929.93,325.62L929.63,325.7L923.27,326.62L922.97,326.6L916.3,326.62L916,326.7L906.91,328.7L906.6,328.68L899.63,328.69L899.33,328.73L893.57,328.62L893.27,328.62L890.24,327.96L889.94,327.82L886.91,327.28L886.6,327.25L880.54,326.19L880.24,326.06L876.6,325.31L876.3,325.32L868.42,325.43L868.12,325.38L859.94,324.75L859.64,324.75L853.58,324.42L853.27,323.95L849.64,319.68L849.33,319.54L846.91,319.02L846.61,319.04L839.33,318.55L839.03,318.52L830.55,317.39L830.24,317.2L828.73,316.85L828.43,317.23L825.4,319.97L825.09,320.01L818.73,321.58L818.43,321.7L816,321.84L815.7,321.85L811.76,322.56L811.46,322.68L809.34,322.86L809.03,322.66L806.61,321.67L806.31,321.79L803.58,322.15L803.28,322.03L795.4,320L795.1,320L792.37,319.31L792.07,319.14L784.79,315L784.49,315.09L781.76,315.26L781.46,315.15L777.22,314.19L776.91,314.3L773.28,314.85L772.98,314.77L769.34,314.67L769.04,314.69L759.34,320.17L759.04,320.3L756.31,322.21L756.01,322.46L753.58,323.52L753.28,323.61L751.46,323.5L751.16,323.42L741.77,321.65L741.46,321.68L728.74,323.25L728.43,323.37L723.28,326.03L722.98,326.25L720.25,327.49L719.95,327.62L714.5,328.08L714.19,327.95L709.95,326.95L709.65,326.95L705.1,326.66L704.8,326.51L702.37,326.02L702.07,326.05L689.35,327.71L689.04,327.84L685.71,328.47L685.41,328.44L680.56,328.54L680.26,328.69L678.13,329.05L677.83,328.96L670.56,327.54L670.26,327.59L666.01,327.55L665.71,327.49L658.14,326.96L657.83,327.01L651.77,327.11L651.47,327.05L642.68,326.04L642.38,326.09L638.44,326.04L638.14,326L632.99,325.97L632.68,325.93L629.65,324.49L629.35,323.68L626.62,317.96L626.32,317.93L623.29,318.23L622.99,318.35L620.26,318.81L619.96,318.8L611.78,319.18L611.47,319.26L605.71,320.03L605.41,320.05L602.08,327.44L601.78,327.48L594.5,327.68L594.2,327.41L588.14,323.03L587.84,322.88L584.81,320.69L584.5,320.4L581.17,318.2L580.87,318.03L575.11,317.95L574.81,317.87L572.38,316.78L572.08,316.27L569.35,312.9L569.05,312.99L566.02,313.14L565.72,313.06L561.17,312.26L560.87,312.53L557.54,314.76L557.23,314.87L555.11,314.97L554.81,314.91L551.17,314.77L550.87,314.78L547.54,315.19L547.23,315.42L543.3,317.54L542.99,317.64L540.87,317.73L540.57,317.72L533.6,317.64L533.3,317.51L530.27,316.91L529.96,316.92L525.42,316.49L525.11,316.48L522.08,317.08L521.78,317.21L519.96,317.15L519.66,317L517.54,316.63L517.24,316.82L514.51,317.72L514.21,317.66L512.39,316.85L512.09,316.36L509.06,312.88L508.75,312.86L504.81,313.28L504.51,313.34L494.81,316.57L494.51,316.73L492.39,316.97L492.09,316.91L489.97,317.09L489.66,317.22L487.54,318.88L487.24,319.37L484.21,322.9L483.91,323.04L482.09,323.14L481.78,322.9L470.88,314.51L470.57,314.38L468.15,314.12L467.85,314.25L460.88,316.5L460.57,316.26L457.54,314.74L457.24,314.92L453.3,317.99L453,318.27L447.24,322.86L446.94,322.88L444.21,322.61L443.91,322.17L440.88,318.87L440.57,318.79L436.03,318.19L435.73,318.49L432.39,320.88L432.09,320.96L429.06,321.04L428.76,321L427.55,320.19L427.24,319.82L424.52,317.51L424.21,317.48L419.97,317.39L419.67,317.78L416.33,321.1L416.03,321.17L413,321.12L412.7,321.05L405.73,319.93L405.43,319.94L403,320.7L402.7,321.04L400.27,323.06L399.97,323.02L396.34,323.25L396.03,323.32L394.21,323.11L393.91,323.02L389.67,322.21L389.37,322.33L385.12,323.28L384.82,323.29L375.13,324.32L374.82,324.4L367.85,325.6L367.55,325.64L364.52,325.35L364.22,325.17L361.49,322.76L361.19,322.38L359.07,320.72L358.76,320.67L350.58,320.03L350.28,320.02L342.4,319.48L342.1,319.31L340.89,318.66L340.58,317.57L338.16,308.87L337.85,309.27L337.55,309.67L334.82,312.41L334.52,312.38L331.49,311.46L331.19,311.28L328.76,310.53L328.46,310.52L325.73,309.71L325.43,309.56L323.92,308.15L323.61,307.68L320.58,304.24L320.28,304.09L318.46,303.79L318.16,303.94L316.34,304.84L316.04,306.08L313.01,316.23L312.71,316.31L308.77,316.61L308.46,316.59L306.95,317.15L306.65,317.29L304.22,317.66L303.92,317.61L301.49,317.83L301.19,317.94L299.37,319.32L299.07,319.8L296.04,323.45L295.74,323.64L293.92,324.19L293.62,324.08L287.86,321.3L287.56,321.06L284.53,317.85L284.22,317.47L280.59,313.15L280.28,312.03L274.22,290.24L273.92,289.77L271.8,287.63L271.5,287.55L269.37,286.35L269.07,285.96L266.34,283.59L266.04,283.58L263.01,284.04L262.71,284.15L261.19,285.21L260.89,285.58L258.16,287.84L257.86,287.85L256.35,287.91L256.04,288.97L249.98,310.48L249.68,310.84L247.26,312.69L246.95,312.69L245.13,313.2L244.83,313.71L241.8,317.41L241.5,317.46L236.04,317.83L235.74,317.73L233.92,317.7L233.62,317.89L230.89,318.78L230.59,318.7L226.04,316.98L225.74,316.59L223.01,313.9L222.71,313.91L220.29,313.28L219.98,312.92L216.65,308.01L216.35,307.45L213.62,303.99L213.32,303.7L211.5,300.97L211.2,300.43L208.17,296.53L207.86,296.24L206.65,296.07L206.35,296.28L202.41,298.18L202.11,298.27L201.2,299.17L200.89,299.58L198.17,302.35L197.86,302.45L195.44,304.06L195.14,304.41L191.8,307.24L191.5,307.41L189.38,309.44L189.08,309.77L187.26,312.61L186.96,313.22L183.93,317.84L183.62,318.16L182.71,319.1L182.41,318.53L182.11,317.96L179.08,313.76L178.78,313.69L176.05,313.85L175.75,313.98L172.11,314.64L171.81,314.66L168.78,315.57L168.47,316.02L165.44,319.32L165.14,319.36L161.5,320.66L161.2,320.81L159.69,320.93L159.38,320.92L157.87,321.36L157.56,321.83L154.84,325.13L154.53,325.12L151.81,324.46L151.5,324.26L149.08,323.3L148.78,323.33L142.11,323.04L141.81,322.98L134.84,323.32L134.54,323.45L123.93,327.6L123.63,327.56L118.17,327.72L117.87,327.81L113.63,328.19L113.33,328.23L109.39,327.91L109.08,327.84L105.45,326.04L105.14,326.08L101.81,325.94L101.51,325.87L98.78,326.03L98.48,326.07L97.87,325.59L97.57,325.08L95.14,320.01L94.84,318.56L89.08,291.21L88.78,290.81L86.66,288.99L86.36,289.07L83.33,290.49L83.02,290.73L80.6,291.67L80.3,291.67L73.63,291.69L73.33,292.27L70.6,298.44L70.3,299.92L64.54,327.64L64.24,328.02L61.81,329.98L61.51,330L53.03,331.24L52.72,331.37L50.6,331.58L50.3,331.54L43.94,330.16L43.63,330.03L40.3,327.43L40,326.88L38.18,323.59L37.88,320.24L35.45,293.46L35.15,272.19L32.12,99.47L31.82,98.2L29.39,90.47L29.09,90.4L23.63,88.58L23.33,88.37L21.21,87.53L20.91,87.64L16.36,89.82L16.06,90.39L13.64,94.93L13.33,98.28L10.91,125.06L10.61,146.33L7.58,319.07L7.27,320.34L4.85,328.12L4.55,328.21L0,329.89L-0.3,332.18" style="vector-effect: non-scaling-stroke; fill: none; stroke: rgb(0, 0, 0); stroke-opacity: 0.8; stroke-width: 0.377953px; opacity: 1;"/></g><g class="points"/><g class="text"/></g><g class="trace scatter trace86f65c" style="stroke-miterlimit: 2; opacity: 1;"><g class="fills"><g><path class="js-fill" d="M0.61,332.18L1288.39,332.18L1265.06,331.43L1264.76,331.41L1238.09,330.5L1237.79,330.48L1227.79,329.12L1227.49,329.06L1224.46,327.77L1224.16,327.48L1221.73,325.99L1221.43,325.98L1215.07,326.31L1214.76,326.39L1212.04,326.44L1211.73,326.44L1205.67,326.51L1205.37,326.59L1199.31,328.56L1199.01,328.81L1197.19,329.36L1196.89,329.3L1190.83,328.66L1190.52,328.64L1182.95,327.67L1182.64,327.6L1177.19,327.06L1176.89,327.06L1172.04,327.8L1171.74,327.87L1167.8,328.04L1167.49,328.06L1159.01,329.05L1158.71,329.13L1156.59,329L1156.28,328.74L1152.65,326.56L1152.34,326.46L1149.01,325.95L1148.71,325.95L1132.04,326.19L1131.74,326.47L1128.1,328.78L1127.8,328.89L1125.38,329.05L1125.07,329.04L1116.59,329.45L1116.28,329.49L1101.13,329.22L1100.83,329.29L1096.89,329.6L1096.59,329.58L1079.32,328.87L1079.01,328.92L1075.98,328.68L1075.68,328.62L1070.83,328.54L1070.53,328.55L1065.99,328.15L1065.68,328.07L1058.41,327.12L1058.11,327.19L1054.17,327.34L1053.87,327.3L1045.08,327.15L1044.77,327.2L1033.26,329.09L1032.96,329L1029.93,328.96L1029.62,329.01L1023.87,329.21L1023.56,329.2L1015.38,327.75L1015.08,327.75L1007.81,328.22L1007.5,328.32L1004.78,328.4L1004.47,328.4L998.41,329.52L998.11,329.63L993.87,330.53L993.57,330.55L990.84,329.48L990.54,328.51L987.2,320.06L986.9,319.82L984.17,318.53L983.87,318.5L969.33,317.8L969.02,317.85L965.99,319.95L965.69,320.89L962.66,327.97L962.36,328.15L959.02,329.23L958.72,329.26L949.63,329.56L949.33,329.52L941.45,329.23L941.15,329.22L926.3,329.97L926,330.02L918.72,330.44L918.42,330.44L899.03,331.08L898.72,331.05L883.27,330.25L882.97,330.24L874.48,330.24L874.18,330.3L871.76,330.06L871.45,330L864.18,329.22L863.88,329.2L846,328.68L845.7,328.72L837.82,328.82L837.52,328.8L816,327.9L815.7,327.93L796.91,328.52L796.61,328.45L783.88,325.93L783.58,325.95L776.31,325.9L776.01,325.95L773.88,325.68L773.58,325.6L770.85,325.61L770.55,325.65L765.4,327.03L765.1,327.15L759.34,328.45L759.04,328.48L742.67,329.36L742.37,329.34L733.28,329.48L732.98,329.5L717.53,329.83L717.22,329.78L709.65,329.5L709.34,329.53L683.59,330.87L683.29,330.81L679.35,330.8L679.04,330.8L656.01,330.52L655.71,330.53L649.95,329.81L649.65,329.75L642.38,328.72L642.08,328.76L639.35,328.44L639.05,328.39L633.29,327.84L632.99,327.78L624.5,326.74L624.2,326.83L618.44,327.82L618.14,327.82L610.56,328.55L610.26,328.61L597.84,330.05L597.53,330.01L586.02,328.18L585.72,328.04L581.78,326.82L581.47,326.83L573.6,326.55L573.29,326.32L569.66,324.45L569.35,324.44L564.2,323.54L563.9,323.48L561.48,323.77L561.17,323.9L556.93,324.86L556.63,324.84L549.05,325.13L548.75,325.33L544.81,327.17L544.51,327.22L541.48,326.91L541.17,326.85L538.14,326.95L537.84,326.96L529.05,326.51L528.75,326.48L517.24,325.52L516.93,325.59L513.3,325.86L512.99,325.6L509.96,323.88L509.66,323.91L495.72,325.96L495.42,326.06L490.87,326.69L490.57,326.66L488.45,326.92L488.15,327.14L485.42,328.36L485.12,328.32L480.57,327.13L480.27,326.96L476.33,323.94L476.03,323.64L473.91,322.53L473.6,322.44L469.06,321.61L468.75,321.62L458.15,322.27L457.85,322.31L454.82,323.38L454.51,323.55L451.79,325.91L451.48,326.22L449.67,327.11L449.36,327.18L446.33,327.11L446.03,327.05L439.97,326L439.67,326.01L432.39,326.76L432.09,326.82L429.06,326.75L428.76,326.53L424.82,324.59L424.52,324.55L420.88,324.92L420.58,325.03L415.12,326.23L414.82,326.2L403.3,325.82L403,325.96L399.67,326.75L399.37,326.78L396.34,326.4L396.03,326.2L392.4,324.56L392.09,324.55L387.85,325.12L387.55,325.15L371.19,327.23L370.88,327.41L367.55,328.51L367.25,328.53L363.31,328.1L363,327.82L359.97,325.85L359.67,325.84L352.4,326.34L352.1,326.38L342.1,326.95L341.79,326.93L338.46,326.28L338.16,326.46L335.73,327.17L335.43,327.01L326.34,322.43L326.04,322.35L324.83,321.27L324.52,320.81L321.19,316.99L320.89,316.77L318.46,315.94L318.16,315.9L314.52,316.1L314.22,316.19L302.1,319.29L301.8,319.36L300.28,320.4L299.98,320.81L296.95,323.76L296.65,323.88L294.83,324.05L294.52,323.9L290.89,322.78L290.59,322.75L289.07,321.89L288.77,321.62L283.62,317.95L283.31,317.84L281.5,316.4L281.19,315.54L276.95,305.38L276.65,304.79L274.53,302.23L274.22,301.9L271.5,299.93L271.19,299.74L267.56,297.53L267.25,297.03L264.83,294.42L264.53,294.59L260.89,295.77L260.59,295.79L257.25,296.02L256.95,296.92L253.32,305.77L253.01,306.18L249.38,309.99L249.07,310.26L245.74,309.32L245.44,309.51L243.01,311.65L242.71,312.15L239.98,315.29L239.68,315.33L236.35,316.49L236.04,316.65L233.01,317.35L232.71,317.4L220.89,311.49L220.59,311.19L217.56,309.07L217.26,308.95L215.44,307.56L215.14,307.22L211.5,304.22L211.2,304.03L209.08,303.58L208.77,303.54L206.35,303.8L206.05,303.85L204.53,304.73L204.23,304.98L200.59,307.22L200.29,307.36L199.38,308.49L199.08,308.98L196.35,312.28L196.05,312.39L193.02,312.69L192.71,312.64L191.2,313L190.9,313.25L187.87,314.9L187.56,314.93L184.53,314.48L184.23,314.39L180.9,313.61L180.59,312.41L178.17,302.79L177.56,303.08L177.26,303.23L171.5,306.29L171.2,306.62L166.96,310.23L166.65,310.38L161.5,313.77L161.2,314.06L157.56,316.6L157.26,316.71L156.35,317.04L156.05,318.27L153.02,328L152.72,327.93L146.96,327.52L146.66,327.54L123.32,327.65L123.02,327.34L120.29,325.2L119.99,325.23L108.48,325.6L108.17,325.51L105.45,325.36L105.14,325.38L96.36,326.39L96.05,325.56L90.9,309.84L90.6,302.45L87.57,243.34L87.27,243.34L84.24,243.95L83.93,244.11L81.21,244.74L80.9,244.73L74.54,245.39L74.24,245.63L71.51,248.45L71.21,249.3L66.36,264.44L66.06,271.83L63.03,331.05L62.72,331.09L53.94,331.8L53.63,331.81L49.69,331.4L49.39,331.28L45.15,330.3L44.85,330.28L44.24,329.62L43.94,328.98L40.3,322.91L40,322.59L39.09,321.62L38.79,320.24L36.36,309.17L36.06,298.77L30.3,118.99L30,118.86L24.24,116.48L23.94,116.19L21.82,115L21.51,114.99L19.7,115.6L19.39,116.26L15.76,122.48L15.45,122.81L14.24,125.19L13.94,126.58L11.82,136.26L11.51,146.67L5.76,326.49L5.45,326.62L0.91,328.18L0.61,332.18Z" style="fill: rgb(0, 186, 56); fill-opacity: 0.8; stroke-width: 0;"/></g></g><g class="errorbars"/><g class="lines"><path class="js-line" d="M0.61,332.18L1288.39,332.18L1265.06,331.43L1264.76,331.41L1238.09,330.5L1237.79,330.48L1227.79,329.12L1227.49,329.06L1224.46,327.77L1224.16,327.48L1221.73,325.99L1221.43,325.98L1215.07,326.31L1214.76,326.39L1212.04,326.44L1211.73,326.44L1205.67,326.51L1205.37,326.59L1199.31,328.56L1199.01,328.81L1197.19,329.36L1196.89,329.3L1190.83,328.66L1190.52,328.64L1182.95,327.67L1182.64,327.6L1177.19,327.06L1176.89,327.06L1172.04,327.8L1171.74,327.87L1167.8,328.04L1167.49,328.06L1159.01,329.05L1158.71,329.13L1156.59,329L1156.28,328.74L1152.65,326.56L1152.34,326.46L1149.01,325.95L1148.71,325.95L1132.04,326.19L1131.74,326.47L1128.1,328.78L1127.8,328.89L1125.38,329.05L1125.07,329.04L1116.59,329.45L1116.28,329.49L1101.13,329.22L1100.83,329.29L1096.89,329.6L1096.59,329.58L1079.32,328.87L1079.01,328.92L1075.98,328.68L1075.68,328.62L1070.83,328.54L1070.53,328.55L1065.99,328.15L1065.68,328.07L1058.41,327.12L1058.11,327.19L1054.17,327.34L1053.87,327.3L1045.08,327.15L1044.77,327.2L1033.26,329.09L1032.96,329L1029.93,328.96L1029.62,329.01L1023.87,329.21L1023.56,329.2L1015.38,327.75L1015.08,327.75L1007.81,328.22L1007.5,328.32L1004.78,328.4L1004.47,328.4L998.41,329.52L998.11,329.63L993.87,330.53L993.57,330.55L990.84,329.48L990.54,328.51L987.2,320.06L986.9,319.82L984.17,318.53L983.87,318.5L969.33,317.8L969.02,317.85L965.99,319.95L965.69,320.89L962.66,327.97L962.36,328.15L959.02,329.23L958.72,329.26L949.63,329.56L949.33,329.52L941.45,329.23L941.15,329.22L926.3,329.97L926,330.02L918.72,330.44L918.42,330.44L899.03,331.08L898.72,331.05L883.27,330.25L882.97,330.24L874.48,330.24L874.18,330.3L871.76,330.06L871.45,330L864.18,329.22L863.88,329.2L846,328.68L845.7,328.72L837.82,328.82L837.52,328.8L816,327.9L815.7,327.93L796.91,328.52L796.61,328.45L783.88,325.93L783.58,325.95L776.31,325.9L776.01,325.95L773.88,325.68L773.58,325.6L770.85,325.61L770.55,325.65L765.4,327.03L765.1,327.15L759.34,328.45L759.04,328.48L742.67,329.36L742.37,329.34L733.28,329.48L732.98,329.5L717.53,329.83L717.22,329.78L709.65,329.5L709.34,329.53L683.59,330.87L683.29,330.81L679.35,330.8L679.04,330.8L656.01,330.52L655.71,330.53L649.95,329.81L649.65,329.75L642.38,328.72L642.08,328.76L639.35,328.44L639.05,328.39L633.29,327.84L632.99,327.78L624.5,326.74L624.2,326.83L618.44,327.82L618.14,327.82L610.56,328.55L610.26,328.61L597.84,330.05L597.53,330.01L586.02,328.18L585.72,328.04L581.78,326.82L581.47,326.83L573.6,326.55L573.29,326.32L569.66,324.45L569.35,324.44L564.2,323.54L563.9,323.48L561.48,323.77L561.17,323.9L556.93,324.86L556.63,324.84L549.05,325.13L548.75,325.33L544.81,327.17L544.51,327.22L541.48,326.91L541.17,326.85L538.14,326.95L537.84,326.96L529.05,326.51L528.75,326.48L517.24,325.52L516.93,325.59L513.3,325.86L512.99,325.6L509.96,323.88L509.66,323.91L495.72,325.96L495.42,326.06L490.87,326.69L490.57,326.66L488.45,326.92L488.15,327.14L485.42,328.36L485.12,328.32L480.57,327.13L480.27,326.96L476.33,323.94L476.03,323.64L473.91,322.53L473.6,322.44L469.06,321.61L468.75,321.62L458.15,322.27L457.85,322.31L454.82,323.38L454.51,323.55L451.79,325.91L451.48,326.22L449.67,327.11L449.36,327.18L446.33,327.11L446.03,327.05L439.97,326L439.67,326.01L432.39,326.76L432.09,326.82L429.06,326.75L428.76,326.53L424.82,324.59L424.52,324.55L420.88,324.92L420.58,325.03L415.12,326.23L414.82,326.2L403.3,325.82L403,325.96L399.67,326.75L399.37,326.78L396.34,326.4L396.03,326.2L392.4,324.56L392.09,324.55L387.85,325.12L387.55,325.15L371.19,327.23L370.88,327.41L367.55,328.51L367.25,328.53L363.31,328.1L363,327.82L359.97,325.85L359.67,325.84L352.4,326.34L352.1,326.38L342.1,326.95L341.79,326.93L338.46,326.28L338.16,326.46L335.73,327.17L335.43,327.01L326.34,322.43L326.04,322.35L324.83,321.27L324.52,320.81L321.19,316.99L320.89,316.77L318.46,315.94L318.16,315.9L314.52,316.1L314.22,316.19L302.1,319.29L301.8,319.36L300.28,320.4L299.98,320.81L296.95,323.76L296.65,323.88L294.83,324.05L294.52,323.9L290.89,322.78L290.59,322.75L289.07,321.89L288.77,321.62L283.62,317.95L283.31,317.84L281.5,316.4L281.19,315.54L276.95,305.38L276.65,304.79L274.53,302.23L274.22,301.9L271.5,299.93L271.19,299.74L267.56,297.53L267.25,297.03L264.83,294.42L264.53,294.59L260.89,295.77L260.59,295.79L257.25,296.02L256.95,296.92L253.32,305.77L253.01,306.18L249.38,309.99L249.07,310.26L245.74,309.32L245.44,309.51L243.01,311.65L242.71,312.15L239.98,315.29L239.68,315.33L236.35,316.49L236.04,316.65L233.01,317.35L232.71,317.4L220.89,311.49L220.59,311.19L217.56,309.07L217.26,308.95L215.44,307.56L215.14,307.22L211.5,304.22L211.2,304.03L209.08,303.58L208.77,303.54L206.35,303.8L206.05,303.85L204.53,304.73L204.23,304.98L200.59,307.22L200.29,307.36L199.38,308.49L199.08,308.98L196.35,312.28L196.05,312.39L193.02,312.69L192.71,312.64L191.2,313L190.9,313.25L187.87,314.9L187.56,314.93L184.53,314.48L184.23,314.39L180.9,313.61L180.59,312.41L178.17,302.79L177.56,303.08L177.26,303.23L171.5,306.29L171.2,306.62L166.96,310.23L166.65,310.38L161.5,313.77L161.2,314.06L157.56,316.6L157.26,316.71L156.35,317.04L156.05,318.27L153.02,328L152.72,327.93L146.96,327.52L146.66,327.54L123.32,327.65L123.02,327.34L120.29,325.2L119.99,325.23L108.48,325.6L108.17,325.51L105.45,325.36L105.14,325.38L96.36,326.39L96.05,325.56L90.9,309.84L90.6,302.45L87.57,243.34L87.27,243.34L84.24,243.95L83.93,244.11L81.21,244.74L80.9,244.73L74.54,245.39L74.24,245.63L71.51,248.45L71.21,249.3L66.36,264.44L66.06,271.83L63.03,331.05L62.72,331.09L53.94,331.8L53.63,331.81L49.69,331.4L49.39,331.28L45.15,330.3L44.85,330.28L44.24,329.62L43.94,328.98L40.3,322.91L40,322.59L39.09,321.62L38.79,320.24L36.36,309.17L36.06,298.77L30.3,118.99L30,118.86L24.24,116.48L23.94,116.19L21.82,115L21.51,114.99L19.7,115.6L19.39,116.26L15.76,122.48L15.45,122.81L14.24,125.19L13.94,126.58L11.82,136.26L11.51,146.67L5.76,326.49L5.45,326.62L0.91,328.18L0.61,332.18" style="vector-effect: non-scaling-stroke; fill: none; stroke: rgb(0, 0, 0); stroke-opacity: 0.8; stroke-width: 0.377953px; opacity: 1;"/></g><g class="points"/><g class="text"/></g><g class="trace scatter trace48adc4" style="stroke-miterlimit: 2; opacity: 1;"><g class="fills"><g><path class="js-fill" d="M1.52,332.18L1289.3,332.18L1266.58,331.43L1266.27,331.42L1253.55,331.32L1253.24,331.32L1231.43,331.12L1231.13,331.01L1220.22,327.69L1219.91,327.64L1212.94,326.81L1212.64,326.84L1205.98,326.62L1205.67,326.7L1199.61,327.98L1199.31,327.96L1187.19,327.85L1186.89,327.89L1183.86,327.49L1183.55,327.38L1179.61,326.69L1179.31,326.67L1171.13,326.86L1170.83,326.94L1164.77,327.59L1164.46,327.55L1160.22,327.73L1159.92,327.84L1155.98,328.4L1155.68,328.39L1151.43,327.37L1151.13,327.34L1147.49,326.43L1147.19,326.32L1140.83,326.14L1140.53,326.2L1136.28,326.2L1135.98,326.18L1130.83,326.47L1130.53,326.61L1126.28,327.71L1125.98,327.71L1106.29,328.37L1105.98,328.35L1101.74,328.62L1101.44,328.7L1095.98,329.37L1095.68,329.36L1074.77,328.65L1074.47,328.6L1065.68,326.93L1065.38,326.82L1059.02,326.03L1058.71,326.05L1050.23,325.77L1049.93,325.64L1047.2,325.25L1046.9,325.25L1043.87,325.99L1043.56,326.08L1035.99,327.86L1035.68,327.9L1030.23,327.88L1029.93,327.9L1025.99,328.24L1025.69,328.37L1023.56,328.51L1023.26,328.38L1019.32,327.41L1019.02,327.37L1008.11,326.8L1007.81,326.82L999.63,328.06L999.32,328.24L995.69,329.59L995.38,329.61L992.05,329.25L991.75,329.19L989.02,327.42L988.72,326.26L985.69,316.88L985.39,316.84L969.33,315.18L969.02,315.17L966.3,315.84L965.99,316.08L964.17,318.4L963.87,319.55L961.14,327.52L960.84,327.5L951.15,326.68L950.84,326.57L946.6,327.16L946.3,327.13L943.87,327.59L943.57,327.7L941.15,327.83L940.84,327.79L934.48,327.27L934.18,327.29L926.9,328.66L926.6,328.79L923.87,329.12L923.57,329.15L914.78,330.17L914.48,330.29L910.84,331.14L910.54,331.16L903.27,330.92L902.97,330.89L883.57,329.76L883.27,329.76L864.18,329.04L863.88,329L847.52,327.94L847.21,327.95L838.12,328.48L837.82,328.43L829.94,328.09L829.64,328.1L812.67,328.66L812.37,328.77L809.64,328.89L809.34,328.88L801.46,327.98L801.16,327.89L796.31,327.22L796,327.18L789.94,326.06L789.64,325.89L785.7,324.42L785.4,324.4L778.73,324.46L778.43,324.56L774.19,325.19L773.88,325.19L769.04,325.76L768.73,325.8L764.49,326.96L764.19,327.07L759.04,328.08L758.73,328.09L747.22,328.01L746.92,327.93L743.89,327.95L743.58,327.97L731.77,329.22L731.46,329.22L722.68,330.21L722.37,330.27L719.34,330.13L719.04,330.09L708.43,328.93L708.13,328.97L691.77,330.62L691.47,330.67L685.1,330.96L684.8,330.83L681.47,330.13L681.16,330.11L663.59,329.01L663.29,328.99L659.65,329.35L659.35,329.41L653.29,330.04L652.98,330.05L648.14,329.67L647.83,329.6L642.68,329.11L642.38,329.12L630.86,328.67L630.56,328.59L624.8,327.36L624.5,327.43L617.53,328.29L617.23,328.26L611.47,328.2L611.17,328.26L600.26,329.69L599.96,329.66L588.14,328.18L587.84,328.1L580.57,326.84L580.26,326.86L575.72,326.44L575.41,326.38L569.66,324.6L569.35,324.44L567.54,324.22L567.23,324.21L560.57,324.73L560.26,324.8L556.02,325.25L555.72,325.23L550.57,325.77L550.26,325.82L543.6,326.43L543.3,326.3L540.26,325.71L539.96,325.72L518.15,326.65L517.84,326.78L514.81,327.35L514.51,327.39L509.06,326.52L508.75,326.51L499.06,326.44L498.75,326.5L490.57,327.27L490.27,327.22L487.24,327.45L486.94,327.49L478.75,327.62L478.45,327.5L470.88,325.38L470.57,325.35L463.91,325.36L463.6,325.43L459.36,325.71L459.06,325.67L454.21,325.84L453.91,325.98L447.24,328.04L446.94,328.06L442.7,327.69L442.39,327.57L438.15,326.67L437.85,326.67L431.48,327.41L431.18,327.44L426.94,327.04L426.64,326.98L420.88,326.44L420.58,326.48L418.15,327.29L417.85,327.5L415.12,328.63L414.82,328.66L407.85,328.42L407.55,328.37L402.7,328.09L402.4,328.19L397.85,328.89L397.55,328.87L384.82,329L384.52,329.01L379.06,329.93L378.76,329.96L370.88,330.03L370.58,330.02L363.31,329.13L363,328.98L359.67,328.19L359.37,328.16L348.46,327.82L348.16,327.82L344.22,327.12L343.92,326.95L339.98,325.37L339.67,323.63L336.64,309.02L336.34,308.7L332.1,303.16L331.79,302.71L328.16,298.11L327.86,298.08L325.43,297.11L325.13,296.84L322.4,293.45L322.1,292.94L319.37,289.6L319.07,289.34L315.74,287.38L315.43,287.24L312.1,304.51L311.8,304.81L303.92,312.19L303.61,312.01L299.37,310.3L299.07,310.22L295.43,314.46L295.13,314.5L292.71,314.1L292.4,313.89L287.25,309.72L286.95,309.35L285.13,305.94L284.83,304.39L281.5,290.67L281.19,289.93L278.77,282.11L278.47,280.89L275.44,266.04L275.13,264.38L273.31,258.05L273.01,257.29L271.19,254.45L270.89,254.53L269.07,255.03L268.77,253.6L265.44,241.1L265.13,240.74L262.41,238.34L262.1,238.2L260.89,237.65L260.59,238.89L257.25,249.86L256.95,250.22L255.13,252.99L254.83,253.96L251.19,268.25L250.89,269.74L249.38,274.29L249.07,274.33L246.95,274.11L246.65,273.69L244.53,270.78L244.23,272.44L240.89,286.59L240.59,286.89L238.47,288.04L238.17,287.86L235.74,287.2L235.44,287.42L232.71,288.48L232.41,288.39L230.59,287.44L230.29,286.95L225.14,277.78L224.83,276.42L222.11,266.94L221.8,266.94L219.38,266.31L219.08,266L217.26,264.12L216.95,261.65L213.62,239.89L213.32,239.24L211.2,233.28L210.89,231.92L208.17,222.22L207.86,221.7L206.35,219.14L206.05,219.98L205.74,220.82L202.41,228.23L202.11,228.61L200.89,230.16L200.59,231.93L197.26,247.37L196.96,247.8L192.71,254.39L192.41,255.94L187.87,275.48L187.56,276.5L182.11,293.61L181.81,294.33L179.08,252.16L178.47,253.33L178.17,253.92L173.62,261.27L173.32,261.49L169.99,263.25L169.69,263.24L168.17,263.2L167.87,264.4L164.53,275.1L164.23,275.47L160.29,281.27L159.99,281.76L157.26,283.68L156.96,288.45L154.53,326.59L153.93,326.15L153.63,325.93L149.99,324.22L149.69,324.15L147.57,324.39L147.26,324.46L141.81,325.02L141.51,325.03L133.63,325.8L133.32,325.94L126.66,328.45L126.35,328.51L123.32,328.4L123.02,328.29L120.29,327.88L119.99,327.89L108.48,327.82L108.17,327.75L103.02,328.44L102.72,328.52L99.08,325.9L98.78,325.89L97.27,325.85L96.96,321.71L92.42,249.98L92.11,244.46L91.81,238.94L91.51,214.36L88.48,17.64L88.18,17.6L84.54,17.8L84.24,17.88L83.02,17.55L82.72,17.31L79.99,15.86L79.69,15.85L77.57,16.4L77.27,16.7L73.33,19.49L73.03,19.63L72.72,19.78L72.42,23.97L67.57,101.72L67.27,107.25L63.93,328.73L63.63,328.79L58.18,330.32L57.87,330.58L55.45,331.95L55.15,331.96L45.15,331.58L44.85,331.43L42.42,329.6L42.12,328.87L38.48,321.69L38.18,321.27L37.27,320.04L36.97,315.56L34.54,279.73L34.24,257.61L31.21,80L30.91,79.69L27.88,77.58L27.57,77.52L26.06,76.43L25.76,75.6L23.03,69.69L22.73,69.64L20,69.84L19.7,69.99L17.88,71.51L17.57,72.24L13.94,79.42L13.64,79.83L12.73,81.07L12.42,85.55L10,121.38L9.7,143.5L6.67,321.13L6.36,321.44L3.33,323.68L3.03,323.77L1.82,324.12L1.52,332.18Z" style="fill: rgb(97, 156, 255); fill-opacity: 0.8; stroke-width: 0;"/></g></g><g class="errorbars"/><g class="lines"><path class="js-line" d="M1.52,332.18L1289.3,332.18L1266.58,331.43L1266.27,331.42L1253.55,331.32L1253.24,331.32L1231.43,331.12L1231.13,331.01L1220.22,327.69L1219.91,327.64L1212.94,326.81L1212.64,326.84L1205.98,326.62L1205.67,326.7L1199.61,327.98L1199.31,327.96L1187.19,327.85L1186.89,327.89L1183.86,327.49L1183.55,327.38L1179.61,326.69L1179.31,326.67L1171.13,326.86L1170.83,326.94L1164.77,327.59L1164.46,327.55L1160.22,327.73L1159.92,327.84L1155.98,328.4L1155.68,328.39L1151.43,327.37L1151.13,327.34L1147.49,326.43L1147.19,326.32L1140.83,326.14L1140.53,326.2L1136.28,326.2L1135.98,326.18L1130.83,326.47L1130.53,326.61L1126.28,327.71L1125.98,327.71L1106.29,328.37L1105.98,328.35L1101.74,328.62L1101.44,328.7L1095.98,329.37L1095.68,329.36L1074.77,328.65L1074.47,328.6L1065.68,326.93L1065.38,326.82L1059.02,326.03L1058.71,326.05L1050.23,325.77L1049.93,325.64L1047.2,325.25L1046.9,325.25L1043.87,325.99L1043.56,326.08L1035.99,327.86L1035.68,327.9L1030.23,327.88L1029.93,327.9L1025.99,328.24L1025.69,328.37L1023.56,328.51L1023.26,328.38L1019.32,327.41L1019.02,327.37L1008.11,326.8L1007.81,326.82L999.63,328.06L999.32,328.24L995.69,329.59L995.38,329.61L992.05,329.25L991.75,329.19L989.02,327.42L988.72,326.26L985.69,316.88L985.39,316.84L969.33,315.18L969.02,315.17L966.3,315.84L965.99,316.08L964.17,318.4L963.87,319.55L961.14,327.52L960.84,327.5L951.15,326.68L950.84,326.57L946.6,327.16L946.3,327.13L943.87,327.59L943.57,327.7L941.15,327.83L940.84,327.79L934.48,327.27L934.18,327.29L926.9,328.66L926.6,328.79L923.87,329.12L923.57,329.15L914.78,330.17L914.48,330.29L910.84,331.14L910.54,331.16L903.27,330.92L902.97,330.89L883.57,329.76L883.27,329.76L864.18,329.04L863.88,329L847.52,327.94L847.21,327.95L838.12,328.48L837.82,328.43L829.94,328.09L829.64,328.1L812.67,328.66L812.37,328.77L809.64,328.89L809.34,328.88L801.46,327.98L801.16,327.89L796.31,327.22L796,327.18L789.94,326.06L789.64,325.89L785.7,324.42L785.4,324.4L778.73,324.46L778.43,324.56L774.19,325.19L773.88,325.19L769.04,325.76L768.73,325.8L764.49,326.96L764.19,327.07L759.04,328.08L758.73,328.09L747.22,328.01L746.92,327.93L743.89,327.95L743.58,327.97L731.77,329.22L731.46,329.22L722.68,330.21L722.37,330.27L719.34,330.13L719.04,330.09L708.43,328.93L708.13,328.97L691.77,330.62L691.47,330.67L685.1,330.96L684.8,330.83L681.47,330.13L681.16,330.11L663.59,329.01L663.29,328.99L659.65,329.35L659.35,329.41L653.29,330.04L652.98,330.05L648.14,329.67L647.83,329.6L642.68,329.11L642.38,329.12L630.86,328.67L630.56,328.59L624.8,327.36L624.5,327.43L617.53,328.29L617.23,328.26L611.47,328.2L611.17,328.26L600.26,329.69L599.96,329.66L588.14,328.18L587.84,328.1L580.57,326.84L580.26,326.86L575.72,326.44L575.41,326.38L569.66,324.6L569.35,324.44L567.54,324.22L567.23,324.21L560.57,324.73L560.26,324.8L556.02,325.25L555.72,325.23L550.57,325.77L550.26,325.82L543.6,326.43L543.3,326.3L540.26,325.71L539.96,325.72L518.15,326.65L517.84,326.78L514.81,327.35L514.51,327.39L509.06,326.52L508.75,326.51L499.06,326.44L498.75,326.5L490.57,327.27L490.27,327.22L487.24,327.45L486.94,327.49L478.75,327.62L478.45,327.5L470.88,325.38L470.57,325.35L463.91,325.36L463.6,325.43L459.36,325.71L459.06,325.67L454.21,325.84L453.91,325.98L447.24,328.04L446.94,328.06L442.7,327.69L442.39,327.57L438.15,326.67L437.85,326.67L431.48,327.41L431.18,327.44L426.94,327.04L426.64,326.98L420.88,326.44L420.58,326.48L418.15,327.29L417.85,327.5L415.12,328.63L414.82,328.66L407.85,328.42L407.55,328.37L402.7,328.09L402.4,328.19L397.85,328.89L397.55,328.87L384.82,329L384.52,329.01L379.06,329.93L378.76,329.96L370.88,330.03L370.58,330.02L363.31,329.13L363,328.98L359.67,328.19L359.37,328.16L348.46,327.82L348.16,327.82L344.22,327.12L343.92,326.95L339.98,325.37L339.67,323.63L336.64,309.02L336.34,308.7L332.1,303.16L331.79,302.71L328.16,298.11L327.86,298.08L325.43,297.11L325.13,296.84L322.4,293.45L322.1,292.94L319.37,289.6L319.07,289.34L315.74,287.38L315.43,287.24L312.1,304.51L311.8,304.81L303.92,312.19L303.61,312.01L299.37,310.3L299.07,310.22L295.43,314.46L295.13,314.5L292.71,314.1L292.4,313.89L287.25,309.72L286.95,309.35L285.13,305.94L284.83,304.39L281.5,290.67L281.19,289.93L278.77,282.11L278.47,280.89L275.44,266.04L275.13,264.38L273.31,258.05L273.01,257.29L271.19,254.45L270.89,254.53L269.07,255.03L268.77,253.6L265.44,241.1L265.13,240.74L262.41,238.34L262.1,238.2L260.89,237.65L260.59,238.89L257.25,249.86L256.95,250.22L255.13,252.99L254.83,253.96L251.19,268.25L250.89,269.74L249.38,274.29L249.07,274.33L246.95,274.11L246.65,273.69L244.53,270.78L244.23,272.44L240.89,286.59L240.59,286.89L238.47,288.04L238.17,287.86L235.74,287.2L235.44,287.42L232.71,288.48L232.41,288.39L230.59,287.44L230.29,286.95L225.14,277.78L224.83,276.42L222.11,266.94L221.8,266.94L219.38,266.31L219.08,266L217.26,264.12L216.95,261.65L213.62,239.89L213.32,239.24L211.2,233.28L210.89,231.92L208.17,222.22L207.86,221.7L206.35,219.14L206.05,219.98L205.74,220.82L202.41,228.23L202.11,228.61L200.89,230.16L200.59,231.93L197.26,247.37L196.96,247.8L192.71,254.39L192.41,255.94L187.87,275.48L187.56,276.5L182.11,293.61L181.81,294.33L179.08,252.16L178.47,253.33L178.17,253.92L173.62,261.27L173.32,261.49L169.99,263.25L169.69,263.24L168.17,263.2L167.87,264.4L164.53,275.1L164.23,275.47L160.29,281.27L159.99,281.76L157.26,283.68L156.96,288.45L154.53,326.59L153.93,326.15L153.63,325.93L149.99,324.22L149.69,324.15L147.57,324.39L147.26,324.46L141.81,325.02L141.51,325.03L133.63,325.8L133.32,325.94L126.66,328.45L126.35,328.51L123.32,328.4L123.02,328.29L120.29,327.88L119.99,327.89L108.48,327.82L108.17,327.75L103.02,328.44L102.72,328.52L99.08,325.9L98.78,325.89L97.27,325.85L96.96,321.71L92.42,249.98L92.11,244.46L91.81,238.94L91.51,214.36L88.48,17.64L88.18,17.6L84.54,17.8L84.24,17.88L83.02,17.55L82.72,17.31L79.99,15.86L79.69,15.85L77.57,16.4L77.27,16.7L73.33,19.49L73.03,19.63L72.72,19.78L72.42,23.97L67.57,101.72L67.27,107.25L63.93,328.73L63.63,328.79L58.18,330.32L57.87,330.58L55.45,331.95L55.15,331.96L45.15,331.58L44.85,331.43L42.42,329.6L42.12,328.87L38.48,321.69L38.18,321.27L37.27,320.04L36.97,315.56L34.54,279.73L34.24,257.61L31.21,80L30.91,79.69L27.88,77.58L27.57,77.52L26.06,76.43L25.76,75.6L23.03,69.69L22.73,69.64L20,69.84L19.7,69.99L17.88,71.51L17.57,72.24L13.94,79.42L13.64,79.83L12.73,81.07L12.42,85.55L10,121.38L9.7,143.5L6.67,321.13L6.36,321.44L3.33,323.68L3.03,323.77L1.82,324.12L1.52,332.18" style="vector-effect: non-scaling-stroke; fill: none; stroke: rgb(0, 0, 0); stroke-opacity: 0.8; stroke-width: 0.377953px; opacity: 1;"/></g><g class="points"/><g class="text"/></g></g></g><g class="overplot"/><path class="xlines-above crisp" d="M0,0" style="fill: none;"/><path class="ylines-above crisp" d="" style="fill: none; stroke-width: 1px; stroke: rgb(0, 0, 0); stroke-opacity: 0;"/><g class="overlines-above"/><g class="xaxislayer-above"/><g class="yaxislayer-above"><path class="ytick ticks crisp" d="M59,0h-3.652968036529681" transform="translate(0,348.18)" style="stroke: rgb(51, 51, 51); stroke-opacity: 1; stroke-width: 0.664176px;"/><path class="ytick ticks crisp" d="M59,0h-3.652968036529681" transform="translate(0,158.57)" style="stroke: rgb(51, 51, 51); stroke-opacity: 1; stroke-width: 0.664176px;"/><g class="ytick"><text text-anchor="end" x="52.14703196347032" y="5.6" transform="translate(0,348.18)" style="font-family: 'Open Sans', verdana, arial, sans-serif; font-size: 16px; fill: rgb(77, 77, 77); fill-opacity: 1; white-space: pre; opacity: 1;">0</text></g><g class="ytick"><text text-anchor="end" x="52.14703196347032" y="5.6" style="font-family: 'Open Sans', verdana, arial, sans-serif; font-size: 16px; fill: rgb(77, 77, 77); fill-opacity: 1; white-space: pre; opacity: 1;" transform="translate(0,158.57)">20k</text></g></g><g class="overaxes-above"/></g><g class="subplot xy3"><g class="layer-subplot"><g class="shapelayer"/><g class="imagelayer"/></g><g class="gridlayer"><g class="x"><path class="xgrid crisp" transform="translate(240.9,0)" d="M0,381.40000000000003v17.400000000000016" style="stroke: rgb(235, 235, 235); stroke-opacity: 1; stroke-width: 0.664176px;"/><path class="xgrid crisp" transform="translate(422.7,0)" d="M0,381.40000000000003v17.400000000000016" style="stroke: rgb(235, 235, 235); stroke-opacity: 1; stroke-width: 0.664176px;"/><path class="xgrid crisp" transform="translate(604.51,0)" d="M0,381.40000000000003v17.400000000000016" style="stroke: rgb(235, 235, 235); stroke-opacity: 1; stroke-width: 0.664176px;"/><path class="xgrid crisp" transform="translate(786.31,0)" d="M0,381.40000000000003v17.400000000000016" style="stroke: rgb(235, 235, 235); stroke-opacity: 1; stroke-width: 0.664176px;"/><path class="xgrid crisp" transform="translate(968.12,0)" d="M0,381.40000000000003v17.400000000000016" style="stroke: rgb(235, 235, 235); stroke-opacity: 1; stroke-width: 0.664176px;"/><path class="xgrid crisp" transform="translate(1149.92,0)" d="M0,381.40000000000003v17.400000000000016" style="stroke: rgb(235, 235, 235); stroke-opacity: 1; stroke-width: 0.664176px;"/><path class="xgrid crisp" transform="translate(1331.73,0)" d="M0,381.40000000000003v17.400000000000016" style="stroke: rgb(235, 235, 235); stroke-opacity: 1; stroke-width: 0.664176px;"/></g><g class="y3"><path class="y3grid crisp" transform="translate(0,390.1)" d="M60,0h1289" style="stroke: rgb(255, 255, 255); stroke-opacity: 1; stroke-width: 0.664176px;"/></g></g><g class="zerolinelayer"/><path class="xlines-below"/><path class="ylines-below"/><g class="overlines-below"/><g class="xaxislayer-below"/><g class="yaxislayer-below"/><g class="overaxes-below"/><g class="plot" transform="translate(60,381.40000000000003)" clip-path="url(#clipa2da9bxy3plot)"><g class="scatterlayer mlayer"><g class="trace scatter trace6bb2aa" style="stroke-miterlimit: 2; opacity: 1;"><g class="fills"><g><path class="js-fill" d="M256.35,17.4L256.35,0L1215.37,0L1215.37,17.4L256.35,17.4Z" style="fill: rgb(248, 118, 109); fill-opacity: 0.5; stroke-width: 0;"/></g></g><g class="errorbars"/><g class="lines"><path class="js-line" d="M256.35,17.4L256.35,0L1215.37,0L1215.37,17.4L256.35,17.4" style="vector-effect: non-scaling-stroke; fill: none; stroke: rgb(115, 115, 115); stroke-opacity: 0.5; stroke-width: 1.88976px; opacity: 1;"/></g><g class="points"/><g class="text"/></g><g class="trace scatter trace373c76" style="stroke-miterlimit: 2; opacity: 1;"><g class="fills"/><g class="errorbars"/><g class="lines"/><g class="points"/><g class="text"><g class="textpoint" transform="translate(0,3.6661417322834646)"><text x="735.4" y="7.83" text-anchor="middle" style="font-family: 'Open Sans', verdana, arial, sans-serif; font-size: 14.6646px; fill: rgb(0, 0, 0); fill-opacity: 1; white-space: pre;">ENST00000674920</text></g></g></g></g></g><g class="overplot"/><path class="xlines-above crisp" d="M0,0" style="fill: none;"/><path class="ylines-above crisp" d="M0,0" style="fill: none;"/><g class="overlines-above"/><g class="xaxislayer-above"/><g class="yaxislayer-above"/><g class="overaxes-above"/></g><g class="subplot xy4"><g class="layer-subplot"><g class="shapelayer"/><g class="imagelayer"/></g><g class="gridlayer"><g class="x"><path class="xgrid crisp" transform="translate(240.9,0)" d="M0,398.80000000000007v52.19999999999995" style="stroke: rgb(235, 235, 235); stroke-opacity: 1; stroke-width: 0.664176px;"/><path class="xgrid crisp" transform="translate(422.7,0)" d="M0,398.80000000000007v52.19999999999995" style="stroke: rgb(235, 235, 235); stroke-opacity: 1; stroke-width: 0.664176px;"/><path class="xgrid crisp" transform="translate(604.51,0)" d="M0,398.80000000000007v52.19999999999995" style="stroke: rgb(235, 235, 235); stroke-opacity: 1; stroke-width: 0.664176px;"/><path class="xgrid crisp" transform="translate(786.31,0)" d="M0,398.80000000000007v52.19999999999995" style="stroke: rgb(235, 235, 235); stroke-opacity: 1; stroke-width: 0.664176px;"/><path class="xgrid crisp" transform="translate(968.12,0)" d="M0,398.80000000000007v52.19999999999995" style="stroke: rgb(235, 235, 235); stroke-opacity: 1; stroke-width: 0.664176px;"/><path class="xgrid crisp" transform="translate(1149.92,0)" d="M0,398.80000000000007v52.19999999999995" style="stroke: rgb(235, 235, 235); stroke-opacity: 1; stroke-width: 0.664176px;"/><path class="xgrid crisp" transform="translate(1331.73,0)" d="M0,398.80000000000007v52.19999999999995" style="stroke: rgb(235, 235, 235); stroke-opacity: 1; stroke-width: 0.664176px;"/></g><g class="y4"><path class="y4grid crisp" transform="translate(0,442.30000000000007)" d="M60,0h1289" style="stroke: rgb(235, 235, 235); stroke-opacity: 1; stroke-width: 0.664176px;"/><path class="y4grid crisp" transform="translate(0,424.9000000000001)" d="M60,0h1289" style="stroke: rgb(235, 235, 235); stroke-opacity: 1; stroke-width: 0.664176px;"/><path class="y4grid crisp" transform="translate(0,407.50000000000006)" d="M60,0h1289" style="stroke: rgb(235, 235, 235); stroke-opacity: 1; stroke-width: 0.664176px;"/></g></g><g class="zerolinelayer"/><path class="xlines-below"/><path class="ylines-below"/><g class="overlines-below"/><g class="xaxislayer-below"/><g class="yaxislayer-below"/><g class="overaxes-below"/><g class="plot" transform="translate(60,398.80000000000007)" clip-path="url(#clipa2da9bxy4plot)"><g class="scatterlayer mlayer"><g class="trace scatter tracebb7c8e" style="stroke-miterlimit: 2; opacity: 1;"><g class="fills"><g><path class="js-fill" d="M0,34.8L0,17.4L1289,17.4L1289,34.8L0,34.8Z" style="fill: rgb(0, 186, 56); fill-opacity: 1; stroke-width: 0;"/></g></g><g class="errorbars"/><g class="lines"><path class="js-line" d="M0,34.8L0,17.4L1289,17.4L1289,34.8L0,34.8" style="vector-effect: non-scaling-stroke; fill: none; stroke: rgb(0, 0, 0); stroke-opacity: 0; stroke-width: 1.88976px; opacity: 1;"/></g><g class="points"/><g class="text"/></g><g class="trace scatter tracecf5652" style="stroke-miterlimit: 2; opacity: 1;"><g class="fills"><g><path class="js-fill" d="M0,52.2L0,34.8L1289,34.8L1289,52.2L0,52.2Z" style="fill: rgb(97, 156, 255); fill-opacity: 1; stroke-width: 0;"/></g></g><g class="errorbars"/><g class="lines"><path class="js-line" d="M0,52.2L0,34.8L1289,34.8L1289,52.2L0,52.2" style="vector-effect: non-scaling-stroke; fill: none; stroke: rgb(0, 0, 0); stroke-opacity: 0; stroke-width: 1.88976px; opacity: 1;"/></g><g class="points"/><g class="text"/></g><g class="trace scatter trace1088ae" style="stroke-miterlimit: 2; opacity: 1;"><g class="fills"><g><path class="js-fill" d="M0,17.4L0,0L1289,0L1289,17.4L0,17.4Z" style="fill: rgb(248, 118, 109); fill-opacity: 1; stroke-width: 0;"/></g></g><g class="errorbars"/><g class="lines"><path class="js-line" d="M0,17.4L0,0L1289,0L1289,17.4L0,17.4" style="vector-effect: non-scaling-stroke; fill: none; stroke: rgb(0, 0, 0); stroke-opacity: 0; stroke-width: 1.88976px; opacity: 1;"/></g><g class="points"/><g class="text"/></g><g class="trace scatter tracedabff7" style="stroke-miterlimit: 2; opacity: 1;"><g class="fills"/><g class="errorbars"/><g class="lines"><path class="js-line" d="M162.72,52.2L162.72,34.8" style="vector-effect: non-scaling-stroke; fill: none; stroke: rgb(0, 0, 0); stroke-opacity: 1; stroke-width: 1.88976px; opacity: 1;"/><path class="js-line" d="M201.8,17.4L201.8,0" style="vector-effect: non-scaling-stroke; fill: none; stroke: rgb(0, 0, 0); stroke-opacity: 1; stroke-width: 1.88976px; opacity: 1;"/><path class="js-line" d="M223.62,17.4L223.62,0" style="vector-effect: non-scaling-stroke; fill: none; stroke: rgb(0, 0, 0); stroke-opacity: 1; stroke-width: 1.88976px; opacity: 1;"/><path class="js-line" d="M402.7,52.2L402.7,34.8" style="vector-effect: non-scaling-stroke; fill: none; stroke: rgb(0, 0, 0); stroke-opacity: 1; stroke-width: 1.88976px; opacity: 1;"/><path class="js-line" d="M609.96,52.2L609.96,34.8" style="vector-effect: non-scaling-stroke; fill: none; stroke: rgb(0, 0, 0); stroke-opacity: 1; stroke-width: 1.88976px; opacity: 1;"/><path class="js-line" d="M612.68,52.2L612.68,34.8" style="vector-effect: non-scaling-stroke; fill: none; stroke: rgb(0, 0, 0); stroke-opacity: 1; stroke-width: 1.88976px; opacity: 1;"/><path class="js-line" d="M658.14,34.8L658.14,17.4" style="vector-effect: non-scaling-stroke; fill: none; stroke: rgb(0, 0, 0); stroke-opacity: 1; stroke-width: 1.88976px; opacity: 1;"/><path class="js-line" d="M821.76,34.8L821.76,17.4" style="vector-effect: non-scaling-stroke; fill: none; stroke: rgb(0, 0, 0); stroke-opacity: 1; stroke-width: 1.88976px; opacity: 1;"/><path class="js-line" d="M844.49,52.2L844.49,34.8" style="vector-effect: non-scaling-stroke; fill: none; stroke: rgb(0, 0, 0); stroke-opacity: 1; stroke-width: 1.88976px; opacity: 1;"/><path class="js-line" d="M999.02,34.8L999.02,17.4" style="vector-effect: non-scaling-stroke; fill: none; stroke: rgb(0, 0, 0); stroke-opacity: 1; stroke-width: 1.88976px; opacity: 1;"/><path class="js-line" d="M1016.29,52.2L1016.29,34.8" style="vector-effect: non-scaling-stroke; fill: none; stroke: rgb(0, 0, 0); stroke-opacity: 1; stroke-width: 1.88976px; opacity: 1;"/><path class="js-line" d="M1127.19,34.8L1127.19,17.4" style="vector-effect: non-scaling-stroke; fill: none; stroke: rgb(0, 0, 0); stroke-opacity: 1; stroke-width: 1.88976px; opacity: 1;"/><path class="js-line" d="M1271.73,34.8L1271.73,17.4" style="vector-effect: non-scaling-stroke; fill: none; stroke: rgb(0, 0, 0); stroke-opacity: 1; stroke-width: 1.88976px; opacity: 1;"/><path class="js-line" d="M24.54,17.4L24.54,0" style="vector-effect: non-scaling-stroke; fill: none; stroke: rgb(0, 0, 0); stroke-opacity: 1; stroke-width: 1.88976px; opacity: 1;"/><path class="js-line" d="M86.36,52.2L86.36,34.8" style="vector-effect: non-scaling-stroke; fill: none; stroke: rgb(0, 0, 0); stroke-opacity: 1; stroke-width: 1.88976px; opacity: 1;"/><path class="js-line" d="M339.07,34.8L339.07,17.4" style="vector-effect: non-scaling-stroke; fill: none; stroke: rgb(0, 0, 0); stroke-opacity: 1; stroke-width: 1.88976px; opacity: 1;"/><path class="js-line" d="M347.25,34.8L347.25,17.4" style="vector-effect: non-scaling-stroke; fill: none; stroke: rgb(0, 0, 0); stroke-opacity: 1; stroke-width: 1.88976px; opacity: 1;"/><path class="js-line" d="M532.69,34.8L532.69,17.4" style="vector-effect: non-scaling-stroke; fill: none; stroke: rgb(0, 0, 0); stroke-opacity: 1; stroke-width: 1.88976px; opacity: 1;"/><path class="js-line" d="M598.14,34.8L598.14,17.4" style="vector-effect: non-scaling-stroke; fill: none; stroke: rgb(0, 0, 0); stroke-opacity: 1; stroke-width: 1.88976px; opacity: 1;"/><path class="js-line" d="M740.86,52.2L740.86,34.8" style="vector-effect: non-scaling-stroke; fill: none; stroke: rgb(0, 0, 0); stroke-opacity: 1; stroke-width: 1.88976px; opacity: 1;"/><path class="js-line" d="M745.4,34.8L745.4,17.4" style="vector-effect: non-scaling-stroke; fill: none; stroke: rgb(0, 0, 0); stroke-opacity: 1; stroke-width: 1.88976px; opacity: 1;"/><path class="js-line" d="M779.04,52.2L779.04,34.8" style="vector-effect: non-scaling-stroke; fill: none; stroke: rgb(0, 0, 0); stroke-opacity: 1; stroke-width: 1.88976px; opacity: 1;"/><path class="js-line" d="M849.94,52.2L849.94,34.8" style="vector-effect: non-scaling-stroke; fill: none; stroke: rgb(0, 0, 0); stroke-opacity: 1; stroke-width: 1.88976px; opacity: 1;"/><path class="js-line" d="M918.12,52.2L918.12,34.8" style="vector-effect: non-scaling-stroke; fill: none; stroke: rgb(0, 0, 0); stroke-opacity: 1; stroke-width: 1.88976px; opacity: 1;"/><path class="js-line" d="M988.11,34.8L988.11,17.4" style="vector-effect: non-scaling-stroke; fill: none; stroke: rgb(0, 0, 0); stroke-opacity: 1; stroke-width: 1.88976px; opacity: 1;"/><path class="js-line" d="M1054.47,52.2L1054.47,34.8" style="vector-effect: non-scaling-stroke; fill: none; stroke: rgb(0, 0, 0); stroke-opacity: 1; stroke-width: 1.88976px; opacity: 1;"/><path class="js-line" d="M1176.28,34.8L1176.28,17.4" style="vector-effect: non-scaling-stroke; fill: none; stroke: rgb(0, 0, 0); stroke-opacity: 1; stroke-width: 1.88976px; opacity: 1;"/><path class="js-line" d="M1213.55,17.4L1213.55,0" style="vector-effect: non-scaling-stroke; fill: none; stroke: rgb(0, 0, 0); stroke-opacity: 1; stroke-width: 1.88976px; opacity: 1;"/><path class="js-line" d="M1222.64,34.8L1222.64,17.4" style="vector-effect: non-scaling-stroke; fill: none; stroke: rgb(0, 0, 0); stroke-opacity: 1; stroke-width: 1.88976px; opacity: 1;"/><path class="js-line" d="M1248.09,52.2L1248.09,34.8" style="vector-effect: non-scaling-stroke; fill: none; stroke: rgb(0, 0, 0); stroke-opacity: 1; stroke-width: 1.88976px; opacity: 1;"/><path class="js-line" d="M1257.18,17.4L1257.18,0" style="vector-effect: non-scaling-stroke; fill: none; stroke: rgb(0, 0, 0); stroke-opacity: 1; stroke-width: 1.88976px; opacity: 1;"/><path class="js-line" d="M1282.64,34.8L1282.64,17.4" style="vector-effect: non-scaling-stroke; fill: none; stroke: rgb(0, 0, 0); stroke-opacity: 1; stroke-width: 1.88976px; opacity: 1;"/><path class="js-line" d="M257.25,34.8L257.25,17.4" style="vector-effect: non-scaling-stroke; fill: none; stroke: rgb(0, 0, 0); stroke-opacity: 1; stroke-width: 1.88976px; opacity: 1;"/><path class="js-line" d="M265.44,34.8L265.44,17.4" style="vector-effect: non-scaling-stroke; fill: none; stroke: rgb(0, 0, 0); stroke-opacity: 1; stroke-width: 1.88976px; opacity: 1;"/><path class="js-line" d="M273.62,34.8L273.62,17.4" style="vector-effect: non-scaling-stroke; fill: none; stroke: rgb(0, 0, 0); stroke-opacity: 1; stroke-width: 1.88976px; opacity: 1;"/><path class="js-line" d="M298.16,34.8L298.16,17.4" style="vector-effect: non-scaling-stroke; fill: none; stroke: rgb(0, 0, 0); stroke-opacity: 1; stroke-width: 1.88976px; opacity: 1;"/><path class="js-line" d="M329.07,52.2L329.07,34.8" style="vector-effect: non-scaling-stroke; fill: none; stroke: rgb(0, 0, 0); stroke-opacity: 1; stroke-width: 1.88976px; opacity: 1;"/><path class="js-line" d="M350.88,52.2L350.88,34.8" style="vector-effect: non-scaling-stroke; fill: none; stroke: rgb(0, 0, 0); stroke-opacity: 1; stroke-width: 1.88976px; opacity: 1;"/><path class="js-line" d="M502.69,34.8L502.69,17.4" style="vector-effect: non-scaling-stroke; fill: none; stroke: rgb(0, 0, 0); stroke-opacity: 1; stroke-width: 1.88976px; opacity: 1;"/><path class="js-line" d="M536.33,52.2L536.33,34.8" style="vector-effect: non-scaling-stroke; fill: none; stroke: rgb(0, 0, 0); stroke-opacity: 1; stroke-width: 1.88976px; opacity: 1;"/><path class="js-line" d="M555.42,52.2L555.42,34.8" style="vector-effect: non-scaling-stroke; fill: none; stroke: rgb(0, 0, 0); stroke-opacity: 1; stroke-width: 1.88976px; opacity: 1;"/><path class="js-line" d="M562.69,34.8L562.69,17.4" style="vector-effect: non-scaling-stroke; fill: none; stroke: rgb(0, 0, 0); stroke-opacity: 1; stroke-width: 1.88976px; opacity: 1;"/><path class="js-line" d="M574.5,52.2L574.5,34.8" style="vector-effect: non-scaling-stroke; fill: none; stroke: rgb(0, 0, 0); stroke-opacity: 1; stroke-width: 1.88976px; opacity: 1;"/><path class="js-line" d="M582.69,52.2L582.69,34.8" style="vector-effect: non-scaling-stroke; fill: none; stroke: rgb(0, 0, 0); stroke-opacity: 1; stroke-width: 1.88976px; opacity: 1;"/><path class="js-line" d="M630.86,34.8L630.86,17.4" style="vector-effect: non-scaling-stroke; fill: none; stroke: rgb(0, 0, 0); stroke-opacity: 1; stroke-width: 1.88976px; opacity: 1;"/><path class="js-line" d="M757.22,52.2L757.22,34.8" style="vector-effect: non-scaling-stroke; fill: none; stroke: rgb(0, 0, 0); stroke-opacity: 1; stroke-width: 1.88976px; opacity: 1;"/><path class="js-line" d="M770.85,52.2L770.85,34.8" style="vector-effect: non-scaling-stroke; fill: none; stroke: rgb(0, 0, 0); stroke-opacity: 1; stroke-width: 1.88976px; opacity: 1;"/><path class="js-line" d="M808.12,34.8L808.12,17.4" style="vector-effect: non-scaling-stroke; fill: none; stroke: rgb(0, 0, 0); stroke-opacity: 1; stroke-width: 1.88976px; opacity: 1;"/><path class="js-line" d="M847.21,52.2L847.21,34.8" style="vector-effect: non-scaling-stroke; fill: none; stroke: rgb(0, 0, 0); stroke-opacity: 1; stroke-width: 1.88976px; opacity: 1;"/><path class="js-line" d="M862.67,34.8L862.67,17.4" style="vector-effect: non-scaling-stroke; fill: none; stroke: rgb(0, 0, 0); stroke-opacity: 1; stroke-width: 1.88976px; opacity: 1;"/><path class="js-line" d="M1005.38,52.2L1005.38,34.8" style="vector-effect: non-scaling-stroke; fill: none; stroke: rgb(0, 0, 0); stroke-opacity: 1; stroke-width: 1.88976px; opacity: 1;"/><path class="js-line" d="M1023.56,34.8L1023.56,17.4" style="vector-effect: non-scaling-stroke; fill: none; stroke: rgb(0, 0, 0); stroke-opacity: 1; stroke-width: 1.88976px; opacity: 1;"/><path class="js-line" d="M1095.38,52.2L1095.38,34.8" style="vector-effect: non-scaling-stroke; fill: none; stroke: rgb(0, 0, 0); stroke-opacity: 1; stroke-width: 1.88976px; opacity: 1;"/><path class="js-line" d="M1165.37,34.8L1165.37,17.4" style="vector-effect: non-scaling-stroke; fill: none; stroke: rgb(0, 0, 0); stroke-opacity: 1; stroke-width: 1.88976px; opacity: 1;"/><path class="js-line" d="M1173.55,34.8L1173.55,17.4" style="vector-effect: non-scaling-stroke; fill: none; stroke: rgb(0, 0, 0); stroke-opacity: 1; stroke-width: 1.88976px; opacity: 1;"/><path class="js-line" d="M1217.19,34.8L1217.19,17.4" style="vector-effect: non-scaling-stroke; fill: none; stroke: rgb(0, 0, 0); stroke-opacity: 1; stroke-width: 1.88976px; opacity: 1;"/></g><g class="points"/><g class="text"/></g><g class="trace scatter tracee5dc16" style="stroke-miterlimit: 2; opacity: 1;"><g class="fills"/><g class="errorbars"/><g class="lines"><path class="js-line" d="M21.82,17.4L21.82,0" style="vector-effect: non-scaling-stroke; fill: none; stroke: rgb(255, 255, 255); stroke-opacity: 1; stroke-width: 1.88976px; opacity: 1;"/><path class="js-line" d="M78.18,52.2L78.18,34.8" style="vector-effect: non-scaling-stroke; fill: none; stroke: rgb(255, 255, 255); stroke-opacity: 1; stroke-width: 1.88976px; opacity: 1;"/><path class="js-line" d="M168.17,52.2L168.17,34.8" style="vector-effect: non-scaling-stroke; fill: none; stroke: rgb(255, 255, 255); stroke-opacity: 1; stroke-width: 1.88976px; opacity: 1;"/><path class="js-line" d="M256.35,17.4L256.35,0" style="vector-effect: non-scaling-stroke; fill: none; stroke: rgb(255, 255, 255); stroke-opacity: 1; stroke-width: 1.88976px; opacity: 1;"/><path class="js-line" d="M264.53,17.4L264.53,0" style="vector-effect: non-scaling-stroke; fill: none; stroke: rgb(255, 255, 255); stroke-opacity: 1; stroke-width: 1.88976px; opacity: 1;"/><path class="js-line" d="M299.98,17.4L299.98,0" style="vector-effect: non-scaling-stroke; fill: none; stroke: rgb(255, 255, 255); stroke-opacity: 1; stroke-width: 1.88976px; opacity: 1;"/><path class="js-line" d="M349.98,34.8L349.98,17.4" style="vector-effect: non-scaling-stroke; fill: none; stroke: rgb(255, 255, 255); stroke-opacity: 1; stroke-width: 1.88976px; opacity: 1;"/><path class="js-line" d="M382.7,34.8L382.7,17.4" style="vector-effect: non-scaling-stroke; fill: none; stroke: rgb(255, 255, 255); stroke-opacity: 1; stroke-width: 1.88976px; opacity: 1;"/><path class="js-line" d="M419.06,52.2L419.06,34.8" style="vector-effect: non-scaling-stroke; fill: none; stroke: rgb(255, 255, 255); stroke-opacity: 1; stroke-width: 1.88976px; opacity: 1;"/><path class="js-line" d="M431.79,34.8L431.79,17.4" style="vector-effect: non-scaling-stroke; fill: none; stroke: rgb(255, 255, 255); stroke-opacity: 1; stroke-width: 1.88976px; opacity: 1;"/><path class="js-line" d="M464.51,34.8L464.51,17.4" style="vector-effect: non-scaling-stroke; fill: none; stroke: rgb(255, 255, 255); stroke-opacity: 1; stroke-width: 1.88976px; opacity: 1;"/><path class="js-line" d="M485.42,17.4L485.42,0" style="vector-effect: non-scaling-stroke; fill: none; stroke: rgb(255, 255, 255); stroke-opacity: 1; stroke-width: 1.88976px; opacity: 1;"/><path class="js-line" d="M496.33,17.4L496.33,0" style="vector-effect: non-scaling-stroke; fill: none; stroke: rgb(255, 255, 255); stroke-opacity: 1; stroke-width: 1.88976px; opacity: 1;"/><path class="js-line" d="M519.05,34.8L519.05,17.4" style="vector-effect: non-scaling-stroke; fill: none; stroke: rgb(255, 255, 255); stroke-opacity: 1; stroke-width: 1.88976px; opacity: 1;"/><path class="js-line" d="M535.42,34.8L535.42,17.4" style="vector-effect: non-scaling-stroke; fill: none; stroke: rgb(255, 255, 255); stroke-opacity: 1; stroke-width: 1.88976px; opacity: 1;"/><path class="js-line" d="M548.14,17.4L548.14,0" style="vector-effect: non-scaling-stroke; fill: none; stroke: rgb(255, 255, 255); stroke-opacity: 1; stroke-width: 1.88976px; opacity: 1;"/><path class="js-line" d="M554.51,34.8L554.51,17.4" style="vector-effect: non-scaling-stroke; fill: none; stroke: rgb(255, 255, 255); stroke-opacity: 1; stroke-width: 1.88976px; opacity: 1;"/><path class="js-line" d="M573.6,34.8L573.6,17.4" style="vector-effect: non-scaling-stroke; fill: none; stroke: rgb(255, 255, 255); stroke-opacity: 1; stroke-width: 1.88976px; opacity: 1;"/><path class="js-line" d="M807.22,17.4L807.22,0" style="vector-effect: non-scaling-stroke; fill: none; stroke: rgb(255, 255, 255); stroke-opacity: 1; stroke-width: 1.88976px; opacity: 1;"/><path class="js-line" d="M846.3,34.8L846.3,17.4" style="vector-effect: non-scaling-stroke; fill: none; stroke: rgb(255, 255, 255); stroke-opacity: 1; stroke-width: 1.88976px; opacity: 1;"/><path class="js-line" d="M861.76,17.4L861.76,0" style="vector-effect: non-scaling-stroke; fill: none; stroke: rgb(255, 255, 255); stroke-opacity: 1; stroke-width: 1.88976px; opacity: 1;"/><path class="js-line" d="M984.48,17.4L984.48,0" style="vector-effect: non-scaling-stroke; fill: none; stroke: rgb(255, 255, 255); stroke-opacity: 1; stroke-width: 1.88976px; opacity: 1;"/><path class="js-line" d="M1030.84,17.4L1030.84,0" style="vector-effect: non-scaling-stroke; fill: none; stroke: rgb(255, 255, 255); stroke-opacity: 1; stroke-width: 1.88976px; opacity: 1;"/><path class="js-line" d="M1236.28,34.8L1236.28,17.4" style="vector-effect: non-scaling-stroke; fill: none; stroke: rgb(255, 255, 255); stroke-opacity: 1; stroke-width: 1.88976px; opacity: 1;"/></g><g class="points"/><g class="text"/></g></g></g><g class="overplot"/><path class="xlines-above crisp" d="" style="fill: none; stroke-width: 1px; stroke: rgb(0, 0, 0); stroke-opacity: 0;"/><path class="ylines-above crisp" d="M0,0" style="fill: none;"/><g class="overlines-above"/><g class="xaxislayer-above"><path class="xtick ticks crisp" d="M0,452v3.652968036529681" transform="translate(240.9,0)" style="stroke: rgb(51, 51, 51); stroke-opacity: 1; stroke-width: 0.664176px;"/><path class="xtick ticks crisp" d="M0,452v3.652968036529681" transform="translate(422.7,0)" style="stroke: rgb(51, 51, 51); stroke-opacity: 1; stroke-width: 0.664176px;"/><path class="xtick ticks crisp" d="M0,452v3.652968036529681" transform="translate(604.51,0)" style="stroke: rgb(51, 51, 51); stroke-opacity: 1; stroke-width: 0.664176px;"/><path class="xtick ticks crisp" d="M0,452v3.652968036529681" transform="translate(786.31,0)" style="stroke: rgb(51, 51, 51); stroke-opacity: 1; stroke-width: 0.664176px;"/><path class="xtick ticks crisp" d="M0,452v3.652968036529681" transform="translate(968.12,0)" style="stroke: rgb(51, 51, 51); stroke-opacity: 1; stroke-width: 0.664176px;"/><path class="xtick ticks crisp" d="M0,452v3.652968036529681" transform="translate(1149.92,0)" style="stroke: rgb(51, 51, 51); stroke-opacity: 1; stroke-width: 0.664176px;"/><path class="xtick ticks crisp" d="M0,452v3.652968036529681" transform="translate(1331.73,0)" style="stroke: rgb(51, 51, 51); stroke-opacity: 1; stroke-width: 0.664176px;"/><g class="xtick"><text text-anchor="middle" x="0" y="474.85296803652966" transform="translate(240.9,0)" style="font-family: 'Open Sans', verdana, arial, sans-serif; font-size: 16px; fill: rgb(77, 77, 77); fill-opacity: 1; white-space: pre; opacity: 1;">200</text></g><g class="xtick"><text text-anchor="middle" x="0" y="474.85296803652966" style="font-family: 'Open Sans', verdana, arial, sans-serif; font-size: 16px; fill: rgb(77, 77, 77); fill-opacity: 1; white-space: pre; opacity: 1;" transform="translate(422.7,0)">400</text></g><g class="xtick"><text text-anchor="middle" x="0" y="474.85296803652966" style="font-family: 'Open Sans', verdana, arial, sans-serif; font-size: 16px; fill: rgb(77, 77, 77); fill-opacity: 1; white-space: pre; opacity: 1;" transform="translate(604.51,0)">600</text></g><g class="xtick"><text text-anchor="middle" x="0" y="474.85296803652966" style="font-family: 'Open Sans', verdana, arial, sans-serif; font-size: 16px; fill: rgb(77, 77, 77); fill-opacity: 1; white-space: pre; opacity: 1;" transform="translate(786.31,0)">800</text></g><g class="xtick"><text text-anchor="middle" x="0" y="474.85296803652966" style="font-family: 'Open Sans', verdana, arial, sans-serif; font-size: 16px; fill: rgb(77, 77, 77); fill-opacity: 1; white-space: pre; opacity: 1;" transform="translate(968.12,0)">1000</text></g><g class="xtick"><text text-anchor="middle" x="0" y="474.85296803652966" style="font-family: 'Open Sans', verdana, arial, sans-serif; font-size: 16px; fill: rgb(77, 77, 77); fill-opacity: 1; white-space: pre; opacity: 1;" transform="translate(1149.92,0)">1200</text></g><g class="xtick"><text text-anchor="middle" x="0" y="474.85296803652966" style="font-family: 'Open Sans', verdana, arial, sans-serif; font-size: 16px; fill: rgb(77, 77, 77); fill-opacity: 1; white-space: pre; opacity: 0;" transform="translate(1331.73,0)">1400</text></g></g><g class="yaxislayer-above"/><g class="overaxes-above"/></g></g><g class="polarlayer"/><g class="smithlayer"/><g class="ternarylayer"/><g class="geolayer"/><g class="funnelarealayer"/><g class="pielayer"/><g class="iciclelayer"/><g class="treemaplayer"/><g class="sunburstlayer"/><g class="glimages"/><defs id="topdefs-a2da9b"><g class="clips"/></defs><g class="layer-above"><g class="imagelayer"/><g class="shapelayer"><path data-index="0" fill-rule="evenodd" d="M60,364H1349V16H60Z" style="opacity: 1; stroke: rgb(0, 0, 0); stroke-opacity: 0; fill: rgb(0, 0, 0); fill-opacity: 0; stroke-width: 0px;"/><path data-index="1" fill-rule="evenodd" d="M60,381.40000000000003H1349V364H60Z" style="opacity: 1; stroke: rgb(0, 0, 0); stroke-opacity: 0; fill: rgb(0, 0, 0); fill-opacity: 0; stroke-width: 0px;"/><path data-index="2" fill-rule="evenodd" d="M60,398.80000000000007H1349V381.40000000000003H60Z" style="opacity: 1; stroke: rgb(0, 0, 0); stroke-opacity: 0; fill: rgb(0, 0, 0); fill-opacity: 0; stroke-width: 0px;"/><path data-index="3" fill-rule="evenodd" d="M60,451H1349V398.80000000000007H60Z" style="opacity: 1; stroke: rgb(51, 51, 51); stroke-opacity: 1; fill: rgb(0, 0, 0); fill-opacity: 0; stroke-width: 0.664176px;"/></g></g><g class="infolayer"><g class="g-gtitle"/><g class="g-xtitle" transform="translate(0,-32)"><text class="xtitle" x="704.5" y="527" text-anchor="middle" style="font-family: 'Open Sans', verdana, arial, sans-serif; font-size: 22px; fill: rgb(0, 0, 0); opacity: 1; font-weight: normal; white-space: pre;">position [nt]</text></g><g class="g-ytitle" transform="translate(16,0)"><text class="ytitle" transform="rotate(-90,6,190)" x="6" y="190" text-anchor="middle" style="font-family: 'Open Sans', verdana, arial, sans-serif; font-size: 22px; fill: rgb(0, 0, 0); opacity: 1; font-weight: normal; white-space: pre;"><tspan style="font-weight:bold"> RFP </tspan></text></g><g class="g-y3title"/><g class="g-y4title" transform="translate(5,0)"><text class="y4title" transform="rotate(-90,17,424.90000000000003)" x="17" y="424.90000000000003" text-anchor="middle" style="font-family: 'Open Sans', verdana, arial, sans-serif; font-size: 22px; fill: rgb(0, 0, 0); opacity: 1; font-weight: normal; white-space: pre;">frame</text></g></g></svg>